<svg xmlns="http://www.w3.org/2000/svg" width="512" height="512" viewBox="0 0 512 512">
  <defs>
    <linearGradient id="bg" x1="0%" y1="0%" x2="100%" y2="100%">
      <stop offset="0%" stop-color="#8B5CF6"/>
      <stop offset="50%" stop-color="#EC4899"/>
      <stop offset="100%" stop-color="#F59E0B"/>
    </linearGradient>
    <linearGradient id="face" x1="0%" y1="0%" x2="0%" y2="100%">
      <stop offset="0%" stop-color="#FEF3C7"/>
      <stop offset="100%" stop-color="#FDE68A"/>
    </linearGradient>
  </defs>
  <rect width="512" height="512" fill="url(#bg)"/>
  <g fill="none" stroke="#FFFFFF" stroke-width="14" stroke-linecap="round" stroke-linejoin="round" opacity="0.88">
    <g transform="translate(64, 124)">
      <line x1="27" y1="0" x2="27" y2="54"/>
      <line x1="0" y1="27" x2="54" y2="27"/>
    </g>
    <g transform="translate(420, 132)">
      <line x1="0" y1="0" x2="44" y2="44"/>
      <line x1="44" y1="0" x2="0" y2="44"/>
    </g>
    <g transform="translate(74, 382)">
      <circle cx="23" cy="7" r="7" fill="#FFFFFF" stroke="none"/>
      <line x1="0" y1="24" x2="46" y2="24"/>
      <circle cx="23" cy="41" r="7" fill="#FFFFFF" stroke="none"/>
    </g>
    <g transform="translate(406, 372)">
      <line x1="0" y1="0" x2="48" y2="0"/>
      <line x1="0" y1="26" x2="48" y2="26"/>
    </g>
  </g>
  <circle cx="256" cy="276" r="130" fill="url(#face)"/>
  <ellipse cx="186" cy="304" rx="22" ry="14" fill="#F9A8D4" opacity="0.8"/>
  <ellipse cx="326" cy="304" rx="22" ry="14" fill="#F9A8D4" opacity="0.8"/>
  <circle cx="212" cy="254" r="16" fill="#1F2937"/>
  <circle cx="300" cy="254" r="16" fill="#1F2937"/>
  <circle cx="218" cy="249" r="6" fill="#FFFFFF"/>
  <circle cx="306" cy="249" r="6" fill="#FFFFFF"/>
  <path d="M 206 320 Q 256 366 306 320" fill="none" stroke="#1F2937" stroke-width="12" stroke-linecap="round"/>
</svg>
