<svg width="1200" height="630" viewBox="0 0 1200 630" fill="none" xmlns="http://www.w3.org/2000/svg">
  <!-- Fundo Floresta -->
  <rect width="1200" height="630" fill="#0C1A19"/>
  <!-- Faixa Teal no topo -->
  <rect width="1200" height="8" fill="#0D9488"/>

  <!-- Título: "Continha" -->
  <text x="60" y="185" font-family="sans-serif" font-size="86" font-weight="700" fill="#2DD4BF">Continha</text>
  <!-- Título: "Mágica" -->
  <text x="60" y="275" font-family="sans-serif" font-size="86" font-weight="700" fill="white">M&#225;gica</text>

  <!-- Linha divisória -->
  <rect x="60" y="300" width="540" height="4" rx="2" fill="#0D9488"/>

  <!-- Slogan -->
  <text x="60" y="356" font-family="sans-serif" font-size="30" fill="#CCFBF1">matem&#225;tica que encanta</text>

  <!-- Descrição -->
  <text x="60" y="412" font-family="sans-serif" font-size="22" fill="#64748B">Atividades para o ensino fundamental &#8212;</text>
  <text x="60" y="442" font-family="sans-serif" font-size="22" fill="#64748B">adi&#231;&#227;o, subtra&#231;&#227;o, multiplica&#231;&#227;o, divis&#227;o e mais</text>

  <!-- Badge: 1º ao 9º ano -->
  <rect x="60" y="482" width="195" height="46" rx="23" fill="#0D9488"/>
  <text x="157" y="511" font-family="sans-serif" font-size="20" font-weight="600" fill="white" text-anchor="middle">1&#186; ao 9&#186; ano</text>

  <!-- Badge: Grátis -->
  <rect x="268" y="482" width="110" height="46" rx="23" fill="#EAB308"/>
  <text x="323" y="511" font-family="sans-serif" font-size="20" font-weight="600" fill="#0C1A19" text-anchor="middle">Gr&#225;tis</text>

  <!-- Badge: Sem cadastro -->
  <rect x="390" y="482" width="178" height="46" rx="23" fill="#132F2C"/>
  <text x="479" y="511" font-family="sans-serif" font-size="20" font-weight="600" fill="#CCFBF1" text-anchor="middle">Sem cadastro</text>

  <!-- URL -->
  <text x="60" y="598" font-family="sans-serif" font-size="18" fill="#0D9488">continhamagica.vercel.app</text>

  <!-- Mascote Pixel (pose idle), escala 4× a partir do viewBox 0 0 100 120 -->
  <g transform="translate(800, 47) scale(4)">
    <!-- Orelhas -->
    <path d="M22 42 L29 30 L35 39 L65 39 L71 30 L78 42" stroke="#2DD4BF" stroke-width="2.5" stroke-linecap="round" stroke-linejoin="round" fill="none"/>
    <!-- Cabeça -->
    <ellipse cx="50" cy="63" rx="27" ry="23" fill="#2DD4BF"/>
    <!-- Olhos idle -->
    <ellipse cx="39" cy="60" rx="5.5" ry="6.5" fill="#0C1A19"/>
    <ellipse cx="61" cy="60" rx="5.5" ry="6.5" fill="#0C1A19"/>
    <ellipse cx="40.5" cy="58.5" rx="2" ry="2.4" fill="#CCFBF1"/>
    <ellipse cx="62.5" cy="58.5" rx="2" ry="2.4" fill="#CCFBF1"/>
    <!-- Nariz -->
    <ellipse cx="50" cy="68" rx="4" ry="2.5" fill="#0D9488"/>
    <!-- Boca idle -->
    <path d="M43 73 Q50 78 57 73" stroke="#0A7A70" stroke-width="1.8" stroke-linecap="round" fill="none"/>
    <!-- Bigodes esquerda -->
    <line x1="20" y1="61" x2="28" y2="62.5" stroke="#0D9488" stroke-width="1.5" stroke-linecap="round"/>
    <line x1="20" y1="64.5" x2="28" y2="64.5" stroke="#0D9488" stroke-width="1.5" stroke-linecap="round"/>
    <!-- Bigodes direita -->
    <line x1="72" y1="62.5" x2="80" y2="61" stroke="#0D9488" stroke-width="1.5" stroke-linecap="round"/>
    <line x1="72" y1="64.5" x2="80" y2="64.5" stroke="#0D9488" stroke-width="1.5" stroke-linecap="round"/>
    <!-- Sombra do corpo -->
    <ellipse cx="50" cy="88" rx="15" ry="6.5" fill="#0D9488" opacity="0.45"/>
    <!-- Corpo -->
    <path d="M36 86 Q31 97 34 104 Q41 107 50 106 Q59 107 66 104 Q69 97 64 86" fill="#2DD4BF"/>
    <!-- Listra do corpo -->
    <path d="M42 96 Q50 101 58 96" stroke="#0D9488" stroke-width="1.4" fill="none" stroke-linecap="round"/>
    <!-- Emblema idle (× dourado) -->
    <circle cx="72" cy="36" r="9" fill="#EAB308"/>
    <text x="72" y="40.5" text-anchor="middle" fill="#0C1A19" font-size="10" font-weight="700">&#215;</text>
  </g>
</svg>
